<svg width="33" height="32" viewBox="0 0 33 32" fill="none" xmlns="http://www.w3.org/2000/svg">
<g clip-path="url(#clip0_452_21472)">
<g clip-path="url(#clip1_452_21472)">
<path d="M32.6668 16C32.6668 7.16344 25.5033 0 16.6668 0C7.83025 0 0.666809 7.16344 0.666809 16C0.666809 23.986 6.51774 30.6053 14.1668 31.8056V20.6251H10.1043V16H14.1668V12.475C14.1668 8.465 16.5556 6.25 20.2103 6.25C21.9603 6.25 23.7919 6.56251 23.7919 6.56251V10.5H21.7743C19.7868 10.5 19.1668 11.7334 19.1668 13V16H23.6043L22.8949 20.6251H19.1668V31.8056C26.8159 30.6053 32.6668 23.986 32.6668 16Z" fill="#868C98"/>
</g>
</g>
<defs>
<clipPath id="clip0_452_21472">
<rect width="32" height="32" fill="white" transform="translate(0.666687)"/>
</clipPath>
<clipPath id="clip1_452_21472">
<rect width="32" height="32" fill="white" transform="translate(0.666748)"/>
</clipPath>
</defs>
</svg>
