<svg width="21" height="20" viewBox="0 0 21 20" fill="none" xmlns="http://www.w3.org/2000/svg">
<path d="M14.6666 17.2087H6.33329C4.90737 17.2087 3.85067 16.8002 3.15039 16.0999C2.45011 15.3996 2.04163 14.3429 2.04163 12.917V7.08366C2.04163 5.65774 2.45011 4.60103 3.15039 3.90075C3.85067 3.20047 4.90737 2.79199 6.33329 2.79199H14.6666C16.0926 2.79199 17.1493 3.20047 17.8495 3.90075C18.5498 4.60103 18.9583 5.65774 18.9583 7.08366V12.917C18.9583 14.3429 18.5498 15.3996 17.8495 16.0999C17.1493 16.8002 16.0926 17.2087 14.6666 17.2087ZM6.33329 3.04199C5.06814 3.04199 4.03127 3.34941 3.31516 4.06552C2.59904 4.78163 2.29163 5.8185 2.29163 7.08366V12.917C2.29163 14.1821 2.59904 15.219 3.31516 15.9351C4.03127 16.6512 5.06814 16.9587 6.33329 16.9587H14.6666C15.9318 16.9587 16.9687 16.6512 17.6848 15.9351C18.4009 15.219 18.7083 14.1821 18.7083 12.917V7.08366C18.7083 5.8185 18.4009 4.78163 17.6848 4.06552C16.9687 3.34941 15.9318 3.04199 14.6666 3.04199H6.33329Z" fill="#525866" stroke="#525866"/>
<path d="M10.4999 10.725C9.79986 10.725 9.09153 10.5083 8.54986 10.0666L5.94152 7.98331C5.67485 7.76664 5.62486 7.37497 5.84153 7.10831C6.05819 6.84164 6.44986 6.79164 6.71653 7.00831L9.32485 9.09164C9.95819 9.59998 11.0332 9.59998 11.6665 9.09164L14.2749 7.00831C14.5415 6.79164 14.9415 6.83331 15.1499 7.10831C15.3665 7.37497 15.3249 7.77498 15.0499 7.98331L12.4415 10.0666C11.9082 10.5083 11.1999 10.725 10.4999 10.725Z" fill="#525866"/>
</svg>
